<svg xmlns="http://www.w3.org/2000/svg" width="221" height="115" viewBox="0 0 221 115" fill="none">
  <path fill-rule="evenodd" clip-rule="evenodd" d="M156.224 0L172.418 0V16.3818L156.224 16.3818V0ZM140.03 49.2861L24.4311 49.2861C19.8819 49.2861 16.1939 52.974 16.1939 57.5233C16.1939 62.0725 19.8819 65.7605 24.4312 65.7605L140.03 65.7605V65.7145H156.179V65.7605H156.224V82.143H156.179V115H140.03V82.143L16.1939 82.143H0.0470484C0.0210643 82.143 0 82.122 0 82.096L0 65.784C0 65.771 0.0105321 65.7605 0.0235242 65.7605C0.0365162 65.7605 0.0470484 65.7499 0.0470484 65.7369L0.0470484 49.3096C0.0470484 49.2966 0.0365162 49.2861 0.0235242 49.2861C0.0105321 49.2861 0 49.2755 0 49.2625L0 32.927C0 32.914 0.0105322 32.9035 0.0235242 32.9035H0.0317402C0.0401947 32.9035 0.0470484 32.8966 0.0470484 32.8882C0.0470484 32.8713 0.0607563 32.8576 0.0776652 32.8576H16.171C16.1837 32.8576 16.1939 32.8679 16.1939 32.8805C16.1939 32.8932 16.2042 32.9035 16.2169 32.9035L140.03 32.9035V0.000601629L156.179 0.000601629V32.9035H156.224V49.2861H156.179H140.03ZM188.612 65.7607H204.806V82.1424H188.612V65.7607ZM188.612 82.1892H172.418V98.5709H188.612V82.1892ZM156.224 98.6176H172.418V114.999H156.224V98.6176ZM188.612 16.4752H172.418V32.857H188.612V16.4752ZM221 49.3322H204.806V65.7139H221V49.3322ZM188.612 32.9037L204.806 32.9037V49.2855L188.612 49.2855V32.9037Z" fill="#041C0C"/>
</svg>