<svg xmlns="http://www.w3.org/2000/svg" width="22" height="23" viewBox="0 0 22 23" fill="none">
  <path fill-rule="evenodd" clip-rule="evenodd" d="M15.3638 21.7687H6.34433C3.03125 21.7687 0.489563 20.572 1.21152 15.7557L2.05215 9.22843C2.4972 6.82521 4.03012 5.90546 5.37513 5.90546H16.3726C17.7374 5.90546 19.1813 6.89444 19.6956 9.22843L20.5362 15.7557C21.1494 20.0281 18.6769 21.7687 15.3638 21.7687Z" stroke="white" stroke-width="2" stroke-linecap="round" stroke-linejoin="round"/>
  <path d="M15.5123 5.66808C15.5123 3.09001 13.4223 1.00004 10.8443 1.00004C9.60281 0.994823 8.4104 1.4843 7.5307 2.36029C6.651 3.23628 6.15649 4.42661 6.15649 5.66808" stroke="white" stroke-width="2" stroke-linecap="round" stroke-linejoin="round"/>
  <path d="M14.0477 10.5339H13.9983" stroke="white" stroke-width="2" stroke-linecap="round" stroke-linejoin="round"/>
  <path d="M7.75086 10.5339H7.70142" stroke="white" stroke-width="2" stroke-linecap="round" stroke-linejoin="round"/>
</svg>