<svg width="111" height="105" viewBox="0 0 111 105" fill="none" xmlns="http://www.w3.org/2000/svg">
<path d="M47.9036 14.4646V35.4463C47.3794 35.3879 46.8466 35.358 46.3069 35.358C43.3526 35.358 40.6065 36.2552 38.3229 37.7937C36.0394 36.2552 33.2933 35.358 30.339 35.358C29.7993 35.358 29.2665 35.3879 28.7422 35.4463V24.5095C28.7422 16.5209 22.308 10.0449 14.3711 10.0449C6.43416 10.0449 6.09126e-06 16.5209 6.09126e-06 24.5095L0 78.3501C0 92.9958 11.796 104.869 26.347 104.869H67.8635C78.887 104.869 87.8233 95.8741 87.8233 84.7788H93.8113C102.851 84.7788 110.178 77.4033 110.178 68.3052C110.178 59.2071 102.851 51.8316 93.8113 51.8316H85.029C82.0896 51.8316 79.2677 52.3401 76.6458 53.2733V14.4646C76.6458 6.47604 70.2117 0 62.2747 0C54.3378 0 47.9036 6.47604 47.9036 14.4646Z" fill="white"/>
<path d="M62.2743 6.42871C66.6837 6.42871 70.2582 10.0265 70.2582 14.4646V65.4982C73.693 61.0915 79.0323 58.2603 85.0285 58.2603H93.8109C99.3226 58.2603 103.791 62.7576 103.791 68.3052C103.791 73.8528 99.3226 78.3501 93.8109 78.3501H87.8229C84.2954 78.3501 81.4358 81.2283 81.4358 84.7788C81.4358 92.3236 75.3591 98.4398 67.8631 98.4398H26.3466C15.3231 98.4398 6.38672 89.4453 6.38672 78.3501L6.38672 24.5095C6.38672 20.0714 9.96125 16.4736 14.3707 16.4736C18.7801 16.4736 22.3546 20.0714 22.3546 24.5095V60.2693H54.2904V14.4646C54.2904 10.0265 57.8649 6.42871 62.2743 6.42871Z" fill="white"/>
<path fill-rule="evenodd" clip-rule="evenodd" d="M53.8919 14.465C53.8919 9.80503 57.6452 6.02734 62.2751 6.02734C66.9049 6.02734 70.6582 9.80503 70.6582 14.465V64.3882C74.1688 60.3848 79.3061 57.8589 85.0293 57.8589H93.8116C99.5439 57.8589 104.191 62.5361 104.191 68.3056C104.191 74.0752 99.5439 78.7523 93.8116 78.7523H87.8237C84.5166 78.7523 81.8357 81.4506 81.8357 84.7792C81.8357 92.5459 75.5803 98.8421 67.8638 98.8421H26.3473C15.1033 98.8421 5.98828 89.6677 5.98828 78.3505L5.98829 24.5099C5.98829 19.8499 9.74154 16.0722 14.3714 16.0722C19.0013 16.0722 22.7546 19.8499 22.7546 24.5099V59.8679H53.8919V14.465ZM62.2751 6.83093C58.0861 6.83093 54.6903 10.2488 54.6903 14.465V60.2697C54.6903 60.4916 54.5116 60.6715 54.2911 60.6715H22.3554C22.1349 60.6715 21.9562 60.4916 21.9562 60.2697V24.5099C21.9562 20.2937 18.5604 16.8758 14.3714 16.8758C10.1825 16.8758 6.78668 20.2937 6.78668 24.5099L6.78668 78.3505C6.78668 89.2239 15.5443 98.0385 26.3473 98.0385H67.8638C75.1393 98.0385 81.0373 92.1021 81.0373 84.7792C81.0373 81.0068 84.0757 77.9487 87.8237 77.9487H93.8116C99.1029 77.9487 103.392 73.6313 103.392 68.3056C103.392 62.9799 99.1029 58.6625 93.8116 58.6625H85.0293C79.1608 58.6625 73.9354 61.4328 70.5731 65.7466C70.468 65.8815 70.2896 65.9344 70.1287 65.8784C69.9678 65.8225 69.8598 65.67 69.8598 65.4986V14.465C69.8598 10.2488 66.464 6.83093 62.2751 6.83093Z" fill="#555555"/>
<path d="M54.29 49.823C54.29 45.3849 50.7155 41.7871 46.3061 41.7871V41.7871C41.8967 41.7871 38.3222 45.3849 38.3222 49.823V65.8948C38.3222 70.3329 41.8967 73.9307 46.3061 73.9307V73.9307C50.7155 73.9307 54.29 70.3329 54.29 65.8948V49.823Z" fill="white"/>
<path fill-rule="evenodd" clip-rule="evenodd" d="M54.6895 49.8225C54.6895 45.1625 50.9362 41.3848 46.3063 41.3848C41.6764 41.3848 37.9232 45.1625 37.9232 49.8225V65.8943C37.9232 70.5543 41.6764 74.332 46.3063 74.332C50.9362 74.332 54.6895 70.5543 54.6895 65.8943V49.8225ZM46.3063 42.1884C50.4953 42.1884 53.8911 45.6063 53.8911 49.8225V65.8943C53.8911 70.1105 50.4953 73.5284 46.3063 73.5284C42.1174 73.5284 38.7216 70.1105 38.7216 65.8943V49.8225C38.7216 45.6063 42.1174 42.1884 46.3063 42.1884Z" fill="#555555"/>
<path d="M38.3232 49.823C38.3232 45.3849 34.7487 41.7871 30.3393 41.7871V41.7871C25.9299 41.7871 22.3554 45.3849 22.3554 49.823V65.8948C22.3554 70.3329 25.9299 73.9307 30.3393 73.9307V73.9307C34.7487 73.9307 38.3232 70.3329 38.3232 65.8948V49.823Z" fill="white"/>
<path fill-rule="evenodd" clip-rule="evenodd" d="M38.7217 49.8225C38.7217 45.1625 34.9684 41.3848 30.3385 41.3848C25.7087 41.3848 21.9554 45.1625 21.9554 49.8225V65.8943C21.9554 70.5543 25.7087 74.332 30.3385 74.332C34.9684 74.332 38.7217 70.5543 38.7217 65.8943V49.8225ZM30.3385 42.1884C34.5275 42.1884 37.9233 45.6063 37.9233 49.8225V65.8943C37.9233 70.1105 34.5275 73.5284 30.3385 73.5284C26.1496 73.5284 22.7538 70.1105 22.7538 65.8943V49.8225C22.7538 45.6063 26.1496 42.1884 30.3385 42.1884Z" fill="#555555"/>
</svg>
