<svg xmlns="http://www.w3.org/2000/svg" width="65" height="66" viewBox="0 0 65 66" fill="none">
  <path d="M53.2462 44.7864L56.2404 33.5892C54.2321 33.0492 44.937 31.6962 38.4359 31.6507C44.0481 28.3622 51.426 22.5375 52.8913 21.0723L44.6943 12.8753C43.229 14.3406 37.3953 21.7276 34.1159 27.3307C34.0735 20.8266 32.7113 11.5223 32.1774 9.52617L20.9771 12.5174C21.5171 14.5256 24.9816 23.2626 28.2033 28.9113C22.5455 25.6986 13.8177 22.2251 11.8094 21.6851L8.8152 32.8823C10.8235 33.4223 20.1186 34.7753 26.6198 34.8208C21.0075 38.1093 13.6296 43.934 12.1644 45.3992L20.3613 53.5962C21.8266 52.1309 27.6603 44.7439 30.9397 39.1408C30.9822 45.6449 32.3443 54.9492 32.8782 56.9453L44.0754 53.9511C43.5354 51.9428 40.071 43.2059 36.8493 37.5572C42.507 40.7698 51.2349 44.2434 53.2432 44.7834L53.2462 44.7864Z" fill="#041C0C"/>
</svg>