<svg xmlns="http://www.w3.org/2000/svg" width="163" height="160" viewBox="0 0 163 160" fill="none">
  <g clip-path="url(#clip0_2290_595)">
    <path d="M162.042 59.383C159.168 46.8562 150.74 38.1023 143.211 39.8173C137.268 41.1744 101.162 64.2595 86.2677 73.9081C99.0066 61.5901 129.649 31.66 132.298 26.187C135.651 19.2525 128.945 9.12667 117.344 3.54926C105.728 -2.01324 93.6027 -0.909684 90.2495 6.00988C87.6 11.4978 83.214 54.0144 81.4925 71.6115C79.7711 54.0144 75.3851 11.4829 72.7355 6.00988C69.3824 -0.909684 57.2574 -2.01324 45.6412 3.54926C34.0251 9.11175 27.3339 19.2525 30.687 26.187C33.3365 31.6749 63.9785 61.5901 76.7174 73.9081C61.823 64.2744 25.7172 41.1744 19.7744 39.8322C12.2449 38.1172 3.81719 46.886 0.943095 59.3979C-1.931 71.9247 1.85622 83.4523 9.38574 85.1673C15.3285 86.5244 57.916 81.3198 75.5348 79.0679C58.6944 84.6603 18.0529 98.3801 13.2777 102.168C7.24514 106.97 8.86182 118.99 16.9003 129.026C24.9388 139.062 36.3453 143.312 42.3779 138.511C47.1531 134.723 69.6219 98.3055 78.828 83.1988C72.7206 99.7968 58.1405 140.002 58.1405 146.086C58.1405 153.781 68.5891 160.015 81.4776 160.015C94.3661 160.015 104.815 153.781 104.815 146.086C104.815 140.002 90.2495 99.8117 84.1271 83.1988C93.3482 98.3204 115.817 134.723 120.577 138.511C126.61 143.312 138.016 139.047 146.055 129.026C154.093 119.005 155.71 106.97 149.677 102.168C144.902 98.3801 104.276 84.6603 87.4204 79.0679C105.039 81.3049 147.612 86.5095 153.569 85.1673C161.129 83.4523 164.901 71.9098 162.027 59.3979L162.042 59.383Z" fill="white"/>
  </g>
  <defs>
    <clipPath id="clip0_2290_595">
      <rect width="163" height="160" fill="white"/>
    </clipPath>
  </defs>
</svg>